HIERARCHY
ROOT SimulationBone
{
	OFFSET 0.000000 0.000000 0.000000
	CHANNELS 6 Xposition Yposition Zposition Zrotation Yrotation Xrotation 
	JOINT Hips
	{
		OFFSET 0.000000 0.000000 0.000000
		CHANNELS 6 Xposition Yposition Zposition Zrotation Yrotation Xrotation 
		JOINT LeftUpLeg
		{
			OFFSET 0.103457 1.857834 10.548504
			CHANNELS 3 Zrotation Yrotation Xrotation
			JOINT LeftLeg
			{
				OFFSET 43.499996 -0.000046 0.000000
				CHANNELS 3 Zrotation Yrotation Xrotation
				JOINT LeftFoot
				{
					OFFSET 42.372192 0.000027 0.000002
					CHANNELS 3 Zrotation Yrotation Xrotation
					JOINT LeftToe
					{
						OFFSET 17.299994 -0.000003 -0.000001
						CHANNELS 3 Zrotation Yrotation Xrotation
						End Site
						{
							OFFSET 0.000000 0.000000 0.000000
						}
					}
				}
			}
		}
		JOINT RightUpLeg
		{
			OFFSET 0.103456 1.857832 -10.548504
			CHANNELS 3 Zrotation Yrotation Xrotation
			JOINT RightLeg
			{
				OFFSET 43.500046 -0.000011 0.000010
				CHANNELS 3 Zrotation Yrotation Xrotation
				JOINT RightFoot
				{
					OFFSET 42.372261 -0.000034 0.000021
					CHANNELS 3 Zrotation Yrotation Xrotation
					JOINT RightToe
					{
						OFFSET 17.300011 0.000001 0.000002
						CHANNELS 3 Zrotation Yrotation Xrotation
						End Site
						{
							OFFSET 0.000000 0.000000 0.000000
						}
					}
				}
			}
		}
		JOINT Spine
		{
			OFFSET 6.901965 -2.603721 0.000001
			CHANNELS 3 Zrotation Yrotation Xrotation
			JOINT Spine1
			{
				OFFSET 12.588100 0.000000 -0.000000
				CHANNELS 3 Zrotation Yrotation Xrotation
				JOINT Spine2
				{
					OFFSET 12.343206 0.000005 0.000000
					CHANNELS 3 Zrotation Yrotation Xrotation
					JOINT Neck
					{
						OFFSET 25.832893 -0.000008 0.000000
						CHANNELS 3 Zrotation Yrotation Xrotation
						JOINT Head
						{
							OFFSET 11.766617 0.000009 0.000001
							CHANNELS 3 Zrotation Yrotation Xrotation
							End Site
							{
								OFFSET 0.000000 0.000000 0.000000
							}
						}
					}
					JOINT LeftShoulder
					{
						OFFSET 19.745899 -1.480394 6.000106
						CHANNELS 3 Zrotation Yrotation Xrotation
						JOINT LeftArm
						{
							OFFSET 11.284122 -0.000030 -0.000014
							CHANNELS 3 Zrotation Yrotation Xrotation
							JOINT LeftForeArm
							{
								OFFSET 33.000050 0.000020 0.000016
								CHANNELS 3 Zrotation Yrotation Xrotation
								JOINT LeftHand
								{
									OFFSET 25.200014 -0.000003 0.000011
									CHANNELS 3 Zrotation Yrotation Xrotation
									End Site
									{
										OFFSET 0.000000 0.000000 0.000000
									}
								}
							}
						}
					}
					JOINT RightShoulder
					{
						OFFSET 19.746094 -1.480381 -6.000073
						CHANNELS 3 Zrotation Yrotation Xrotation
						JOINT RightArm
						{
							OFFSET 11.284140 -0.000016 -0.000006
							CHANNELS 3 Zrotation Yrotation Xrotation
							JOINT RightForeArm
							{
								OFFSET 33.000088 0.000015 0.000002
								CHANNELS 3 Zrotation Yrotation Xrotation
								JOINT RightHand
								{
									OFFSET 25.199776 0.000133 0.000416
									CHANNELS 3 Zrotation Yrotation Xrotation
									End Site
									{
										OFFSET 0.000000 0.000000 0.000000
									}
								}
							}
						}
					}
				}
			}
		}
	}
}
MOTION
Frames: 9
Frame Time: 0.033333
-208.121164 0.000000 433.605820 0.000000 -38.871121 0.000000 0.583099 91.673500 0.102952 95.671393 0.488195 -178.234756 170.625188 -12.968003 160.396611 -33.215306 -1.006581 -9.781481 82.313806 4.915429 -9.145073 21.454551 0.003092 -0.000000 -177.476824 -3.482503 -159.100091 -19.576859 2.391422 20.518281 87.281089 -13.235043 5.561196 21.454558 -0.003119 -0.000020 8.471287 1.268388 -0.017610 6.931855 2.535473 0.040594 6.613422 2.535801 0.025276 6.481275 3.561970 20.718890 -17.979358 -7.943756 25.158013 174.370713 -76.296000 4.345794 -21.106253 57.237405 33.222132 -35.010351 -17.875908 1.521147 13.294718 -13.421860 -9.853191 136.185475 73.157869 -43.493562 4.646610 -51.349779 -37.263374 -34.854339 19.686818 -1.661007 9.815360 6.917937 -5.330815 
-208.020186 0.000000 433.688338 0.000000 -35.921654 0.000000 0.772697 91.611214 0.221698 95.909752 0.538853 -178.230596 170.479732 -12.244601 158.077707 -34.372476 -0.985230 -11.529389 82.991381 6.417305 -8.007276 21.454555 0.003092 -0.000000 -176.963890 -3.591996 -158.204202 -19.693198 2.495210 21.511763 87.351098 -13.812942 6.259678 21.454560 -0.003102 -0.000017 8.460848 1.242975 0.212319 6.915815 2.471009 0.498446 6.597424 2.474103 0.483518 6.624950 2.702743 20.539926 -18.235073 -7.145833 24.527518 174.338229 -76.024445 4.387084 -19.129528 57.876168 34.988747 -34.182720 -17.503506 1.478206 13.618239 -13.028815 -10.264279 134.210881 73.542935 -45.465567 4.762837 -52.311534 -39.476468 -33.718854 19.539141 -1.625265 9.828016 5.254490 -5.408384 
-207.853361 0.000000 433.746644 0.000000 -32.934003 0.000000 0.980402 91.637741 0.275872 96.120023 0.591686 -178.649780 170.783799 -11.353700 154.441792 -35.038430 -0.542892 -12.917359 82.628097 7.433291 -7.648430 21.454553 0.003095 -0.000000 -176.432706 -3.526795 -157.888975 -19.788170 2.817434 22.559049 87.179701 -14.436955 6.940928 21.454557 -0.003118 -0.000019 8.434314 1.188735 0.446654 6.867071 2.348882 0.963059 6.548744 2.354788 0.948857 6.760693 2.182037 20.106053 -18.322532 -6.811014 23.857902 173.725711 -75.874898 5.017895 -16.492480 58.493084 37.581514 -33.210552 -17.129119 1.432502 13.891404 -12.070505 -11.295597 132.324315 73.494871 -47.382648 4.744005 -52.924414 -41.720209 -32.810825 19.639751 -1.611415 10.160630 3.552914 -6.069743 
-207.616867 0.000000 433.812332 0.000000 -29.909467 0.000000 1.235330 91.454292 0.196005 96.294602 1.061123 -179.368929 171.774326 -10.557911 151.815899 -34.067013 -0.294707 -13.759401 83.107112 8.000713 -7.853486 21.454550 0.003090 0.000000 -176.188445 -3.514407 -157.304243 -20.717291 3.151470 23.239538 87.391191 -14.769736 7.944456 21.454557 -0.003121 -0.000018 8.407640 1.199954 0.641533 6.817804 2.360078 1.352717 6.499511 2.368340 1.338440 6.282498 2.259815 19.696391 -17.901969 -7.067738 23.487643 174.325839 -76.002527 4.400422 -13.670315 59.296806 40.487951 -32.113630 -16.790656 1.387231 13.927682 -11.129584 -11.773881 131.328979 73.305470 -48.407712 4.174803 -53.066386 -42.805530 -32.804688 19.806324 -1.621965 10.532810 1.461427 -8.373410 
-207.301767 0.000000 433.884644 0.000000 -26.848746 0.000000 1.548359 91.444893 0.070580 96.507446 1.352026 179.761805 173.485644 -9.175592 150.459778 -30.787805 0.142457 -13.722090 84.412013 8.315150 -6.312901 21.454555 0.003090 0.000000 -175.598399 -3.309797 -156.035576 -21.243458 3.239541 23.442043 87.267906 -14.773597 9.056000 21.454562 -0.003098 -0.000016 8.362932 1.203639 0.743067 6.730470 2.362101 1.554989 6.412212 2.371583 1.540701 5.935267 2.317967 19.327490 -17.517658 -7.392683 23.187592 175.333415 -76.210677 3.364391 -10.726563 60.229687 43.311442 -30.417612 -15.883919 1.294526 13.836990 -10.370077 -10.817524 130.029289 73.424322 -49.713935 3.268736 -53.395823 -42.747582 -33.342064 19.699242 -1.627053 10.970529 0.146626 -10.314555 
-206.909161 0.000000 433.988550 0.000000 -23.753500 0.000000 1.870496 91.666458 -0.198405 96.830237 1.230312 178.795124 175.817211 -7.400203 150.702878 -26.762375 0.222344 -12.871169 84.754608 7.849579 -5.724016 21.454551 0.003087 0.000000 -175.036247 -2.503496 -155.958313 -22.035158 3.651781 24.278208 86.474901 -15.127257 10.617789 21.454562 -0.003112 -0.000020 8.303579 1.109386 0.756868 6.610468 2.173814 1.575940 6.292253 2.183423 1.562790 6.125253 2.637654 18.967280 -17.492934 -7.888773 23.070526 175.658778 -76.543526 3.022605 -7.867577 61.198550 46.457506 -27.842334 -14.647170 1.167091 14.247543 -9.557813 -10.242341 129.804289 73.529234 -49.932644 2.265131 -53.680133 -41.808063 -34.080947 19.399300 -1.624530 11.214123 0.375362 -10.836999 
-206.453599 0.000000 434.146934 0.000000 -20.623525 0.000000 2.262810 91.985947 -0.678539 97.425067 0.734761 177.498741 178.196466 -5.332109 154.061160 -23.367558 -0.860455 -13.660720 83.776737 8.415449 -5.665440 21.454553 0.003096 0.000001 -174.973150 -0.741809 -156.559301 -24.509647 4.273925 25.352487 85.087355 -15.476425 12.939235 21.454555 -0.003109 -0.000017 8.310998 0.935003 0.765800 6.622614 1.824732 1.583871 6.304465 1.834402 1.572824 6.453482 1.991048 18.734603 -17.781064 -7.303183 22.516610 175.431947 -76.118394 3.266394 -5.211376 61.323692 49.124527 -25.256163 -13.597713 1.056621 14.435224 -7.574421 -9.623396 130.047321 73.494181 -49.689575 1.447443 -54.173977 -40.144034 -34.730245 19.652406 -1.655878 10.729998 1.716803 -10.693828 
-205.943653 0.000000 434.366902 0.000000 -17.458608 0.000000 2.596481 92.171143 -1.194188 98.046943 0.313266 176.362380 -179.695898 -3.686297 156.597113 -20.617428 -1.714609 -13.944803 83.103110 8.702857 -5.215929 21.454551 0.003089 -0.000001 -176.041282 1.544407 -154.996253 -29.621755 3.819489 25.040537 82.993963 -14.592183 15.939515 21.454557 -0.003103 -0.000019 8.355019 0.759955 0.731565 6.707455 1.476311 1.505912 6.389354 1.485516 1.496977 6.260934 1.715894 18.542770 -17.307378 -6.773872 22.009689 175.661810 -76.242997 3.027911 -3.293090 61.671561 50.291127 -23.194419 -12.670476 0.966462 13.862508 -5.192022 -7.991230 130.336907 73.558870 -49.390635 0.792437 -54.920206 -37.753229 -36.183163 19.973082 -1.711392 10.434855 3.496522 -11.160350 
-205.382687 0.000000 434.655046 0.000000 -14.261442 0.000000 2.658282 92.081650 -1.823185 98.200089 -0.705514 175.453874 -178.751720 -1.653902 158.788115 -18.822231 -2.227753 -13.864709 82.878014 8.782429 -4.546842 21.454551 0.003091 0.000000 -178.880414 5.428999 -154.261243 -37.474492 3.816721 24.471144 80.159551 -13.235564 19.202682 21.454557 -0.003109 -0.000017 8.306279 0.457835 0.642138 6.604941 0.878341 1.309297 6.286870 0.886371 1.303974 6.645538 1.571436 18.388242 -17.638827 -6.460759 21.751012 175.868150 -76.716186 2.803986 -1.956123 61.962103 51.042485 -21.983597 -12.319341 0.927405 13.855527 -2.327446 -4.502398 129.099714 73.814223 -50.620782 0.753958 -56.129822 -36.338386 -38.359558 20.658081 -1.810892 11.098797 4.843909 -11.031849 
